<?xml version="1.0" encoding="utf-8"?>
<!-- Generator: Adobe Illustrator 24.0.0, SVG Export Plug-In . SVG Version: 6.00 Build 0)  -->
<svg version="1.1" id="Layer_1" xmlns="http://www.w3.org/2000/svg" xmlns:xlink="http://www.w3.org/1999/xlink" x="0px" y="0px"
	 viewBox="0 0 612 792" style="enable-background:new 0 0 612 792;" xml:space="preserve">
<style type="text/css">
	.st0{fill:#FFFFFF;}
</style>
<g id="mMyL9N.tif">
	<g>
		<g>
			<path d="M421.81,764.15c-75.72,0-151.44,0-227.16,0c-1.9-0.64-3.83-1.18-5.68-1.94c-2.89-1.19-5.68-2.59-8.57-3.77
				c-3.07-1.26-4.8-3.61-4.8-6.94c-0.01-12.16-0.03-24.32,0.04-36.49c0.01-1.32,0.48-2.66,0.86-3.96c0.69-2.34,1.62-4.62,2.2-6.99
				c1.14-4.62,2.08-9.29,3.18-13.92c0.25-1.05,1-1.99,1.17-3.04c0.76-4.7,1.41-9.42,2.06-14.13c0.29-2.09,0.29-4.24,0.76-6.29
				c0.82-3.57,1.97-7.06,2.87-10.61c1.1-4.33,1.63-8.73,1.43-13.23c-0.16-3.52-0.12-7.05,0.01-10.57c0.05-1.55,0.13-3.32,0.88-4.58
				c3.18-5.31,2.6-11.4,3.66-17.11c0.8-4.35,0.29-8.94,0.5-13.41c0.06-1.4,0.3-2.89,0.88-4.14c1.76-3.82,2.7-7.74,2.36-11.96
				c-0.06-0.74,0.01-1.53,0.2-2.24c1.24-4.58,1.89-9.25,3.62-13.77c1.29-3.35,0.79-7.43,0.8-11.19c0-1.27-0.83-2.57-1.4-3.8
				c-1.06-2.29-2.14-4.59-3.36-6.8c-0.78-1.43-1.69-2.82-2.76-4.05c-2.6-3-4.64-6.17-5.99-10.06c-1.31-3.76-3.99-7.05-6.18-10.48
				c-0.87-1.37-2.14-2.48-3.02-3.84c-1.29-2.01-2.3-4.2-3.6-6.19c-2.29-3.51-4.63-7-7.12-10.37c-1.43-1.94-3.41-3.49-4.76-5.48
				c-3.82-5.61-7.57-11.27-11.09-17.07c-1.79-2.94-2.81-6.35-4.56-9.32c-1.62-2.76-1.58-5.21-0.15-7.96
				c1.34-2.56,0.35-4.3-2.46-4.92c-2.91-0.65-5.84-1.21-8.68-2.08c-2.07-0.64-4.04-1.65-5.98-2.65c-0.93-0.48-1.87-1.2-2.43-2.05
				c-1.4-2.15-2.57-4.45-3.88-6.66c-1.87-3.18-3.7-6.39-5.7-9.49c-1.43-2.22-3.13-4.27-4.67-6.42c-1.07-1.5-2.21-2.97-3.08-4.58
				c-1-1.85-1.64-3.89-2.6-5.77c-2.46-4.78-5.02-9.52-7.52-14.28c-0.22-0.42-0.37-0.89-0.46-1.36c-0.78-4.11-3.01-6.55-7.12-8.07
				c-4.46-1.66-7.54-5.07-7.65-10.37c-0.03-1.54-0.3-3.14-0.78-4.6c-1.17-3.57-4.34-4.67-7.5-5.75c-1.33-0.46-2.93-0.79-3.82-1.74
				c-2.35-2.49-4.56-5.16-6.49-7.99c-3.03-4.43-5.66-9.14-8.68-13.57c-3.02-4.43-6.41-8.61-9.47-13.03
				c-3.49-5.04-3.21-8.7,0.57-13.44c4.18-5.25,7.8-10.82,9.94-17.28c0.58-1.75,1.67-3.44,2.88-4.84c2.59-3,5.37-5.83,8.16-8.65
				c1.79-1.8,1.98-3.72,1.47-6.15c-0.41-1.94-0.55-4.26,0.14-6.05c1.68-4.32,4.12-8.25,7.23-11.81c2.56-2.93,5.26-5.81,6.77-9.58
				c1.77-4.43,4.45-8.31,8.53-10.99c2.02-1.33,3.17-3.18,3.96-5.36c0.28-0.76,0.45-1.63,0.93-2.25c1.9-2.48,3.71-5.07,5.91-7.26
				c2.65-2.63,4.35-5.54,5.2-9.21c0.46-1.99,1.99-3.76,3.2-5.52c0.51-0.75,1.71-1.05,2.15-1.81c2.43-4.25,4.72-8.57,7.06-12.87
				c1.26-2.32,2.24-4.86,3.84-6.91c2.54-3.24,5.53-6.14,8.28-9.22c0.9-1.01,1.88-2.06,2.42-3.27c1.3-2.94,2.43-5.89,4.97-8.13
				c1.34-1.18,2.1-2.99,3.23-4.42c3.34-4.24,7.56-7.45,12.02-10.42c2.59-1.72,5.23-2.23,8.15-1.26c1.04,0.35,1.97,1.03,3.02,1.31
				c3.1,0.8,6.2,1.73,9.36,2.13c4.38,0.55,7.76,3.28,11.66,4.82c1.5,0.59,3.06,1.23,4.3,2.22c2.44,1.95,4.92,3.4,8.2,3.3
				c1.16-0.03,2.4,0.54,3.49,1.06c2.87,1.37,5.69,2.84,8.51,4.32c1.15,0.61,2.23,1.34,3.33,2.03c3.68,2.34,7.07,5.23,11.67,5.76
				c2.78,0.32,5.53,0.93,8.31,1.2c2,0.19,4.04,0.04,6.31,0.04c-3.41-4.72-8.14-6.56-13.12-7.02c-5.54-0.52-9.88-3.19-14.4-5.87
				c-2.19-1.3-4.53-2.73-6.97-3.18c-4.64-0.86-8.6-2.87-12.46-5.41c-3.17-2.08-6.43-4.13-9.89-5.64c-4.68-2.05-5.48-5.43-4.2-9.79
				c0.91-3.07,3.43-5.64,5.11-8.51c1.6-2.72,3.86-4.65,6.54-6.23c0.78-0.46,1.57-1.08,2.06-1.83c2.54-3.9,5-7.84,5.57-12.63
				c0.11-0.92,0.48-1.88,0.97-2.68c2.97-4.94,6.18-9.75,8.98-14.78c2.31-4.16,4.74-8.13,8.05-11.63c2.77-2.93,5.34-6.19,7.32-9.7
				c3.01-5.34,6.34-10.15,11.23-14.08c4.65-3.73,9.22-6.72,15.41-5.26c1.59,0.37,3.07,1.3,4.51,2.14c1.78,1.04,3.31,2.84,5.2,3.29
				c4.86,1.17,8.72,4.08,12.9,6.45c5.28,3,10.55,6.01,15.72,9.19c1.88,1.15,3.55,2.7,5.18,4.22c1.77,1.66,3.31,3.56,5.07,5.23
				c2.11,2,4.35,3.87,6.54,5.79c1.48,1.3,2.85,2.78,4.48,3.85c4.4,2.87,5,5.63,2.14,10.1c-1.21,1.89-2.48,3.85-3.1,5.96
				c-1.66,5.65-3.97,10.89-7.94,15.32c-1.12,1.25-2.2,2.6-3.02,4.06c-3.11,5.55-5.94,11.26-9.21,16.71c-2.49,4.15-5.48,8-8.25,11.98
				c-1.87,2.68-3.55,5.52-5.7,7.96c-2.15,2.44-3.78,5.06-5.03,8.05c-1.63,3.91-4.09,7.28-8.71,7.63
				c-5.57,0.42-11.17,0.49-16.16-2.89c-1.02-0.69-2.51-0.7-3.78-1.02c-0.09,0.22-0.19,0.45-0.28,0.67c1.97,1.49,3.82,3.19,5.93,4.43
				c7.21,4.21,15.03,7.09,22.79,10.06c2.81,1.08,5.54,2.7,8.45,3.14c6.19,0.93,11.58,3.34,16.57,6.98c2.82,2.06,5.9,3.61,9.59,3.58
				c1-0.01,2.13,0.55,2.97,1.16c4.29,3.09,8.47,6.33,12.76,9.42c1.79,1.28,3.8,2.31,4.32,4.67c1.36,6.18,0.35,12.04-2.26,17.76
				c-0.92,2-1.57,4.19-1.96,6.36c-0.71,3.88-0.81,7.89-1.73,11.7c-2.08,8.58-7.11,14.35-16.2,16.09c-2.33,0.45-4.74,1.33-6.7,2.65
				c-2.56,1.72-5.11,2.71-8.19,2.58c-2.9-0.13-5.81,0.06-8.7-0.05c-5.21-0.19-10.16,0.24-14.7,3.38c-2.75,1.9-6.13,2.88-9.05,4.58
				c-2.22,1.29-4.45,1.98-6.99,1.92c-3.11-0.06-6.22-0.09-9.33,0c-4.44,0.13-7.72-1.78-9.55-5.71c-1.41-3.05-3.72-5.01-6.47-6.58
				c-4.46-2.54-8.18-5.89-11.25-9.95c-2.13-2.83-4.22-5.57-7.4-7.43c-1.74-1.02-3.3-2.72-4.37-4.46c-2.53-4.14-6.72-6-10.9-8.92
				c-0.26,1.42-0.72,2.41-0.56,3.28c0.66,3.67,0.59,7.55,2.94,10.77c0.38,0.51,0.52,1.28,0.55,1.95c0.19,3.21,0.51,6.44,0.37,9.65
				c-0.09,1.9-0.63,3.94-1.53,5.61c-1.8,3.34-3.94,6.5-6.04,9.67c-2.71,4.08-5.51,8.11-8.31,12.13c-0.61,0.88-1.27,1.81-2.11,2.45
				c-2.43,1.85-5.28,2.41-8.28,2.48c-1.08,0.03-2.19,0.19-3.23,0.49c-1.34,0.39-1.5,1.35-0.65,2.38c0.42,0.51,0.99,0.93,1.57,1.26
				c4.25,2.36,8.79,3.62,13.69,3.56c3.75-0.04,7.24,0.77,10.54,2.75c5.97,3.59,12,7.11,18.18,10.32c3.17,1.64,6.79,2.38,10.07,3.84
				c3.16,1.41,6.21,2.69,9.8,2.75c3.19,0.06,6.24,0.97,8.76,3.41c3.36,3.25,6.54,6.53,8.97,10.61c1.69,2.84,4.4,5.06,6.19,7.85
				c2.33,3.64,3.96,7.74,6.33,11.35c2.63,4.03,5.77,7.73,8.66,11.6c0.89,1.19,1.72,2.43,2.52,3.69c1.15,1.82,2.47,3.57,3.28,5.53
				c0.99,2.38,1.85,4.62,4.44,5.82c3.62,1.67,5.33,4.9,6.37,8.56c0.16,0.57,0.44,1.17,0.83,1.59c2.88,3.12,5.83,6.17,8.7,9.3
				c1.83,2,3.61,4.01,4.42,6.75c0.91,3.08,2.63,5.68,4.85,8.1c2.04,2.22,3.65,4.9,5.13,7.55c2.77,4.98,5.54,9.92,9.51,14.11
				c1.87,1.97,3.5,4.17,5.06,6.4c2.73,3.89,4.85,8.18,8.43,11.49c2.66,2.47,4.65,5.4,5.5,9.16c0.9,4.01,2.92,7.51,6.13,10.35
				c1.46,1.29,2.24,3.38,3.23,5.16c1.2,2.16,2.16,4.45,3.45,6.55c1.1,1.78,1.53,3.75,0.8,5.5c-1.91,4.57-5.37,8.03-9.84,9.91
				c-3.98,1.68-7.44,3.73-10.41,6.88c-1.61,1.7-3.76,2.92-5.76,4.2c-2.44,1.57-5.1,2.83-7.45,4.51c-3.63,2.61-7.2,5.03-11.98,5.07
				c-1.5,0.01-3.08,1.04-4.48,1.86c-1.27,0.74-1.12,1.79,0.31,2.11c3.64,0.82,7.31,1.76,11.01,2.07c6.44,0.53,12.87-0.18,19.26-1.09
				c4.61-0.66,6.93,2.64,6.84,6.86c-0.12,5.46-0.13,10.88,2.31,16.09c1.05,2.24,0.96,5.04,1.31,7.59c0.55,4.06,1,8.13,1.58,12.18
				c0.19,1.34,0.45,2.75,1.06,3.94c1.41,2.75,2.04,5.6,2.04,8.69c0,5.03,0.1,10.06,0.38,15.08c0.15,2.7,0.96,5.36,1.15,8.06
				c0.39,5.68,0.56,11.38,0.85,17.07c0.06,1.15,0.49,2.34,0.28,3.42c-0.6,3.01-0.46,5.82,1.18,8.51c0.59,0.98,1.07,2.1,1.29,3.22
				c0.32,1.6,0.47,3.26,0.48,4.89c0.03,4.42-0.07,8.84-0.08,13.26c-0.01,4.24-0.11,8.49,0.08,12.72c0.13,3,0.65,5.99,1.02,8.99
				c0.16,1.28,0.28,2.58,0.59,3.83c0.12,0.51,0.72,1.29,1.06,1.26c0.58-0.04,1.43-0.49,1.63-0.98c0.58-1.43,1.18-2.96,1.25-4.48
				c0.17-3.93-0.05-7.88,0.1-11.81c0.1-2.71-0.48-5.15-1.76-7.49c-1.68-3.08-2.38-6.43-2.26-9.89c0.24-7.06,0.88-14.12,0.91-21.17
				c0.11-26.26,0.1-52.52-0.01-78.78c-0.02-4.42,2.87-8.69,7.28-9.65c2.44-0.53,4.99-1.24,7.08-2.54c3.85-2.39,7.43-5.21,11.03-7.97
				c1.45-1.11,1.38-3.07-0.17-4.11c-1.45-0.97-3.11-1.68-4.75-2.32c-4.89-1.9-7.76-6.14-11.36-9.55c-2.87-2.72-4.19-5.97-4.53-9.94
				c-0.3-3.49-0.96-7.08-2.23-10.33c-1.72-4.44-4.18-8.58-6.28-12.88c-0.38-0.78-0.73-1.64-0.85-2.49
				c-0.46-3.21-1.23-6.25-3.23-8.93c-0.74-0.99-1.14-2.29-1.45-3.51c-0.62-2.42-0.86-4.96-1.65-7.32c-0.64-1.92-2.24-3.54-2.74-5.47
				c-1.75-6.8-5.57-12.64-8.33-18.97c-0.89-2.04-1.72-4.14-2.28-6.28c-0.69-2.64-1.3-5.17-3.2-7.37c-2.93-3.39-5.36-7.21-8.28-10.62
				c-2.39-2.79-5.22-5.2-7.78-7.85c-1.85-1.93-3.88-3.79-5.27-6.03c-1.63-2.64-3.46-4.83-6.07-6.56c-1.6-1.06-3.12-2.55-4.06-4.2
				c-3.34-5.88-7.58-10.99-12.41-15.66c-0.86-0.84-1.46-1.97-2.1-3.03c-3.14-5.25-6.24-10.52-10.9-14.65
				c-2.48-2.2-4.32-4.81-4.54-8.26c-0.14-2.3,1.72-4.22,3.73-3.89c2.96,0.49,5.95,0.83,8.86,1.54c5.37,1.3,10.79,1.73,16.3,1.59
				c1.74-0.04,3.66,0.07,5.21,0.75c5.18,2.25,10.66,3.12,16.13,4.22c2.91,0.58,5.7,1.75,8.54,2.64c0.39,0.12,0.78,0.21,1.18,0.28
				c4.18,0.73,8.17,1.93,12.08,3.66c3.2,1.42,6.72,2.26,10.19,2.89c3.88,0.7,7.84,0.9,11.34,3.05c0.66,0.41,1.55,0.51,2.35,0.63
				c4.16,0.59,8.2,1.49,11.5,4.33c1.32,1.14,2.47,2.49,3.83,3.58c3.42,2.74,6.92,5.37,10.36,8.08c2.5,1.97,4.9,4.1,7.46,5.99
				c2.79,2.06,5.91,3.78,7.34,7.16c1.31,3.11,3.65,4.89,6.59,6.33c1.49,0.73,2.57,2.32,3.83,3.52c2.25,2.14,4.05,4.63,7.05,6.11
				c2.24,1.11,3.92,3.44,5.69,5.36c0.82,0.88,1.16,2.19,1.92,3.15c1.92,2.42,4.98,2.22,6.27-0.59c2.1-4.57,5.69-7.28,10.08-9.37
				c1.98-0.95,3.67-2.54,5.38-3.97c2.03-1.7,3.83-3.67,5.92-5.29c2.56-1.98,5.74-3.18,7.41-6.26c1.68-3.07,4.34-5.09,7.51-6.4
				c2.08-0.86,2.92-2.69,4.06-4.38c0.83-1.23,1.92-2.35,3.09-3.26c1.04-0.81,2.4-1.18,3.54-1.89c3.54-2.2,6.57-4.86,7.73-9.23
				c-4.5,0.84-7.97,2.96-10.16,7.07c-1.38,2.59-3.03,4.97-6.43,5.16c-3.07,0.17-5.21,1.97-7.4,3.97c-2.44,2.22-5.31,3.99-8.01,5.93
				c-1.05,0.75-2.24,1.32-3.2,2.17c-2.06,1.8-3.96,3.78-6.01,5.58c-2.99,2.62-6.04,5.17-9.1,7.71c-1.14,0.95-2.35,1.84-3.58,2.67
				c-3.22,2.19-10.63-0.2-13.75-3.35c-7.22-7.3-14.51-14.53-21.7-21.85c-2.81-2.87-5.59-5.79-8.07-8.94
				c-2.29-2.91-1.64-7.22,1.24-9.46c3.46-2.69,6.36-5.78,8.71-9.53c1.72-2.75,3.77-5.42,6.15-7.59c2.66-2.42,4.97-4.95,6.77-8.08
				c1.47-2.55,3.38-4.86,5.23-7.17c1.29-1.62,2.86-3,4.2-4.59c1.79-2.13,3.32-4.49,5.24-6.48c2.48-2.59,4.7-5.19,5.78-8.77
				c0.48-1.6,2.12-2.9,3.35-4.22c1.72-1.85,3.59-3.55,5.33-5.39c3.62-3.82,7.21-7.67,10.77-11.54c2.75-2.99,5.78-5.81,8.04-9.15
				c2.71-4,5.34-7.97,8.76-11.45c3.33-3.39,6.26-7.18,9.35-10.81c0.7-0.82,1.5-1.61,1.96-2.55c1.9-3.88,4.39-7.29,7.62-10.18
				c1.85-1.66,4.19-2.6,6.22-1.43c3.2,1.85,6.34,4.07,8.86,6.75c3.15,3.33,5.68,7.25,8.41,10.97c2.52,3.43,4.87,6.95,8.11,9.84
				c2.92,2.61,5.48,5.64,8.19,8.5c2.46,2.59,4.93,5.17,7.34,7.81c1,1.09,2.13,2.19,2.72,3.51c2.64,5.87,1.67,11.75-1.57,16.87
				c-2.92,4.61-6.81,8.62-10.42,12.76c-1.73,1.99-3.88,3.6-5.74,5.49c-3.14,3.2-6.12,6.55-9.29,9.71c-2.71,2.71-5.36,5.38-6.9,9.02
				c-1.05,2.49-2.93,4.52-5.4,5.67c-5.36,2.51-6.76,7.67-9.23,12.92c1.44-0.81,2.37-1.24,3.2-1.81c2.73-1.89,5.44-3.81,8.14-5.74
				c2.88-2.06,6.25-1.12,6.99,2.02c0.72,3.05,0.69,6.15-0.78,8.93c-1.71,3.23-2.21,6.65-2.06,10.16c0.18,4.32-0.68,8.21-2.9,11.98
				c-1.46,2.49-2.13,5.43-3.24,8.14c-0.8,1.95-1.42,4.09-2.67,5.72c-3.65,4.73-2.59,9.3-0.1,13.98c1.01,1.89,1.43,3.72,0.89,6.01
				c-1.27,5.29-2.04,10.7-3.16,16.02c-0.6,2.84-1.54,5.61-2.27,8.43c-0.49,1.9-0.97,3.81-1.31,5.74c-0.67,3.82-1.04,7.71-1.92,11.49
				c-0.76,3.23-2.08,6.33-3.1,9.5c-0.74,2.31-0.98,4.88-2.16,6.93c-1.94,3.38-2.49,6.98-3.09,10.7c-0.59,3.71-1.41,7.46-3.91,10.46
				c-2.78,3.34-5.65,6.62-8.6,9.81c-3.39,3.66-6.8,7.31-10.4,10.76c-2.17,2.08-2.74,4.53-3.11,7.31c-0.25,1.89-0.84,3.94-1.93,5.46
				c-1.89,2.64-4.32,4.89-6.46,7.35c-1.42,1.64-2.48,3.72-4.16,4.97c-3.17,2.34-5.45,5.08-7.08,8.72c-2.05,4.6-3.33,9.13-3.18,14.26
				c0.28,9.04,0.09,18.1,0.06,27.16c0,0.81-0.21,1.61-0.3,2.42c-0.45,3.86-1.24,7.72-1.29,11.59c-0.16,13.54-0.06,27.09-0.07,40.63
				c0,0.88-0.19,1.77-0.26,2.65c-0.25,3.23-1.54,6.39-0.5,9.73c0.5,1.61,0.73,3.36,0.74,5.04c0.05,15.27,0.06,30.54-0.01,45.82
				c-0.01,1.75-0.15,3.71-0.94,5.2c-2.22,4.22-2.68,8.69-2.68,13.3c0.01,3.52,0.02,7.05,0,10.57c-0.02,3.59-1.8,5.57-5.35,6.07
				C422.64,763.65,422.23,763.96,421.81,764.15z"/>
			<path class="st0" d="M421.81,764.15c0.42-0.19,0.82-0.5,1.26-0.56c3.55-0.5,5.33-2.48,5.35-6.07c0.02-3.52,0.01-7.05,0-10.57
				c-0.01-4.61,0.45-9.08,2.68-13.3c0.78-1.49,0.93-3.45,0.94-5.2c0.07-15.27,0.06-30.54,0.01-45.82c-0.01-1.69-0.24-3.44-0.74-5.04
				c-1.04-3.35,0.25-6.5,0.5-9.73c0.07-0.89,0.26-1.77,0.26-2.65c0.02-13.54-0.09-27.09,0.07-40.63c0.05-3.87,0.83-7.73,1.29-11.59
				c0.09-0.81,0.3-1.62,0.3-2.42c0.02-9.05,0.22-18.11-0.06-27.16c-0.16-5.12,1.12-9.66,3.18-14.26c1.63-3.64,3.91-6.38,7.08-8.72
				c1.69-1.25,2.74-3.33,4.16-4.97c2.14-2.47,4.57-4.72,6.46-7.35c1.09-1.51,1.68-3.57,1.93-5.46c0.37-2.79,0.93-5.24,3.11-7.31
				c3.6-3.44,7.02-7.09,10.4-10.76c2.95-3.19,5.82-6.47,8.6-9.81c2.5-3,3.32-6.75,3.91-10.46c0.59-3.71,1.15-7.32,3.09-10.7
				c1.17-2.05,1.42-4.62,2.16-6.93c1.02-3.18,2.34-6.27,3.1-9.5c0.88-3.77,1.25-7.66,1.92-11.49c0.34-1.93,0.82-3.84,1.31-5.74
				c0.73-2.82,1.67-5.59,2.27-8.43c1.12-5.33,1.89-10.73,3.16-16.02c0.55-2.28,0.12-4.12-0.89-6.01c-2.5-4.68-3.55-9.25,0.1-13.98
				c1.25-1.63,1.88-3.77,2.67-5.72c1.11-2.7,1.78-5.65,3.24-8.14c2.22-3.78,3.08-7.66,2.9-11.98c-0.15-3.5,0.35-6.92,2.06-10.16
				c1.47-2.78,1.5-5.88,0.78-8.93c-0.74-3.13-4.11-4.08-6.99-2.02c-2.7,1.93-5.41,3.86-8.14,5.74c-0.83,0.57-1.76,1-3.2,1.81
				c2.47-5.25,3.87-10.41,9.23-12.92c2.47-1.15,4.35-3.18,5.4-5.67c1.54-3.65,4.19-6.31,6.9-9.02c3.17-3.17,6.16-6.51,9.29-9.71
				c1.85-1.89,4-3.51,5.74-5.49c3.61-4.14,7.51-8.15,10.42-12.76c3.24-5.12,4.21-11,1.57-16.87c-0.59-1.31-1.72-2.42-2.72-3.51
				c-2.41-2.64-4.88-5.21-7.34-7.81c-2.71-2.85-5.26-5.88-8.19-8.5c-3.23-2.89-5.59-6.41-8.11-9.84c-2.73-3.72-5.26-7.64-8.41-10.97
				c-2.52-2.67-5.66-4.9-8.86-6.75c-2.03-1.17-4.37-0.23-6.22,1.43c-3.23,2.89-5.71,6.3-7.62,10.18c-0.46,0.95-1.27,1.73-1.96,2.55
				c-3.09,3.63-6.01,7.42-9.35,10.81c-3.42,3.48-6.05,7.45-8.76,11.45c-2.26,3.33-5.3,6.15-8.04,9.15
				c-3.56,3.88-7.15,7.72-10.77,11.54c-1.74,1.83-3.61,3.54-5.33,5.39c-1.23,1.32-2.86,2.62-3.35,4.22
				c-1.08,3.58-3.3,6.18-5.78,8.77c-1.92,2-3.45,4.36-5.24,6.48c-1.33,1.58-2.91,2.97-4.2,4.59c-1.85,2.31-3.76,4.62-5.23,7.17
				c-1.8,3.13-4.11,5.66-6.77,8.08c-2.39,2.17-4.43,4.84-6.15,7.59c-2.34,3.75-5.25,6.84-8.71,9.53c-2.88,2.24-3.53,6.55-1.24,9.46
				c2.48,3.15,5.26,6.07,8.07,8.94c7.19,7.33,14.48,14.56,21.7,21.85c3.12,3.15,10.53,5.54,13.75,3.35
				c1.23-0.83,2.43-1.72,3.58-2.67c3.06-2.54,6.11-5.09,9.1-7.71c2.06-1.8,3.96-3.78,6.01-5.58c0.96-0.84,2.15-1.42,3.2-2.17
				c2.7-1.94,5.57-3.7,8.01-5.93c2.2-2,4.33-3.8,7.4-3.97c3.39-0.19,5.05-2.57,6.43-5.16c2.19-4.11,5.66-6.23,10.16-7.07
				c-1.16,4.37-4.19,7.03-7.73,9.23c-1.13,0.7-2.5,1.08-3.54,1.89c-1.17,0.91-2.26,2.04-3.09,3.26c-1.14,1.68-1.98,3.52-4.06,4.38
				c-3.17,1.31-5.83,3.33-7.51,6.4c-1.68,3.07-4.85,4.27-7.41,6.26c-2.09,1.62-3.89,3.59-5.92,5.29c-1.71,1.43-3.41,3.03-5.38,3.97
				c-4.39,2.1-7.98,4.81-10.08,9.37c-1.29,2.81-4.35,3.01-6.27,0.59c-0.76-0.96-1.1-2.26-1.92-3.15c-1.78-1.92-3.45-4.25-5.69-5.36
				c-3-1.48-4.8-3.97-7.05-6.11c-1.26-1.2-2.34-2.79-3.83-3.52c-2.94-1.44-5.28-3.22-6.59-6.33c-1.42-3.38-4.55-5.1-7.34-7.16
				c-2.56-1.89-4.96-4.01-7.46-5.99c-3.44-2.71-6.95-5.34-10.36-8.08c-1.36-1.09-2.51-2.44-3.83-3.58c-3.3-2.84-7.34-3.74-11.5-4.33
				c-0.8-0.11-1.69-0.22-2.35-0.63c-3.49-2.15-7.45-2.35-11.34-3.05c-3.46-0.63-6.99-1.47-10.19-2.89
				c-3.92-1.74-7.91-2.93-12.08-3.66c-0.4-0.07-0.8-0.16-1.18-0.28c-2.85-0.89-5.63-2.06-8.54-2.64c-5.46-1.1-10.95-1.97-16.13-4.22
				c-1.56-0.68-3.47-0.79-5.21-0.75c-5.51,0.14-10.93-0.29-16.3-1.59c-2.91-0.7-5.9-1.05-8.86-1.54c-2.01-0.33-3.88,1.59-3.73,3.89
				c0.22,3.46,2.06,6.07,4.54,8.26c4.66,4.13,7.75,9.4,10.9,14.65c0.63,1.05,1.23,2.19,2.1,3.03c4.83,4.68,9.07,9.78,12.41,15.66
				c0.94,1.65,2.46,3.15,4.06,4.2c2.61,1.72,4.44,3.92,6.07,6.56c1.38,2.24,3.41,4.1,5.27,6.03c2.55,2.65,5.39,5.06,7.78,7.85
				c2.92,3.41,5.35,7.23,8.28,10.62c1.9,2.2,2.5,4.73,3.2,7.37c0.56,2.15,1.39,4.24,2.28,6.28c2.76,6.33,6.58,12.17,8.33,18.97
				c0.5,1.93,2.1,3.56,2.74,5.47c0.79,2.36,1.03,4.9,1.65,7.32c0.31,1.22,0.71,2.52,1.45,3.51c2,2.68,2.77,5.72,3.23,8.93
				c0.12,0.86,0.46,1.71,0.85,2.49c2.1,4.29,4.56,8.44,6.28,12.88c1.26,3.25,1.93,6.84,2.23,10.33c0.34,3.97,1.66,7.22,4.53,9.94
				c3.6,3.41,6.47,7.65,11.36,9.55c1.64,0.64,3.3,1.35,4.75,2.32c1.55,1.04,1.62,3,0.17,4.11c-3.6,2.76-7.19,5.58-11.03,7.97
				c-2.09,1.3-4.64,2-7.08,2.54c-4.41,0.96-7.3,5.24-7.28,9.65c0.1,26.26,0.12,52.52,0.01,78.78c-0.03,7.06-0.67,14.11-0.91,21.17
				c-0.12,3.46,0.58,6.82,2.26,9.89c1.29,2.35,1.86,4.79,1.76,7.49c-0.15,3.93,0.07,7.88-0.1,11.81c-0.07,1.51-0.67,3.04-1.25,4.48
				c-0.2,0.49-1.05,0.94-1.63,0.98c-0.34,0.02-0.93-0.76-1.06-1.26c-0.31-1.25-0.43-2.55-0.59-3.83c-0.37-2.99-0.89-5.98-1.02-8.99
				c-0.18-4.23-0.09-8.48-0.08-12.72c0.01-4.42,0.11-8.84,0.08-13.26c-0.01-1.63-0.16-3.29-0.48-4.89
				c-0.22-1.12-0.69-2.24-1.29-3.22c-1.63-2.69-1.78-5.5-1.18-8.51c0.21-1.08-0.22-2.28-0.28-3.42c-0.29-5.69-0.46-11.39-0.85-17.07
				c-0.19-2.7-1-5.36-1.15-8.06c-0.28-5.02-0.38-10.05-0.38-15.08c0-3.09-0.62-5.94-2.04-8.69c-0.61-1.19-0.87-2.6-1.06-3.94
				c-0.58-4.05-1.03-8.12-1.58-12.18c-0.35-2.55-0.26-5.35-1.31-7.59c-2.45-5.2-2.43-10.62-2.31-16.09
				c0.09-4.22-2.23-7.53-6.84-6.86c-6.4,0.92-12.82,1.62-19.26,1.09c-3.7-0.3-7.37-1.25-11.01-2.07c-1.43-0.32-1.58-1.36-0.31-2.11
				c1.4-0.82,2.97-1.85,4.48-1.86c4.78-0.03,8.35-2.46,11.98-5.07c2.35-1.69,5.01-2.94,7.45-4.51c2-1.29,4.16-2.5,5.76-4.2
				c2.97-3.15,6.43-5.2,10.41-6.88c4.47-1.88,7.93-5.34,9.84-9.91c0.73-1.75,0.3-3.72-0.8-5.5c-1.29-2.1-2.26-4.39-3.45-6.55
				c-0.99-1.78-1.77-3.87-3.23-5.16c-3.22-2.85-5.23-6.34-6.13-10.35c-0.85-3.76-2.83-6.7-5.5-9.16c-3.58-3.31-5.7-7.6-8.43-11.49
				c-1.56-2.23-3.2-4.43-5.06-6.4c-3.97-4.18-6.74-9.12-9.51-14.11c-1.48-2.66-3.09-5.34-5.13-7.55c-2.23-2.42-3.94-5.02-4.85-8.1
				c-0.81-2.74-2.59-4.75-4.42-6.75c-2.86-3.13-5.82-6.18-8.7-9.3c-0.39-0.43-0.67-1.03-0.83-1.59c-1.05-3.67-2.76-6.89-6.37-8.56
				c-2.59-1.2-3.45-3.44-4.44-5.82c-0.81-1.96-2.14-3.71-3.28-5.53c-0.79-1.26-1.63-2.5-2.52-3.69c-2.89-3.87-6.02-7.57-8.66-11.6
				c-2.37-3.62-4-7.71-6.33-11.35c-1.79-2.79-4.5-5.01-6.19-7.85c-2.43-4.08-5.61-7.36-8.97-10.61c-2.52-2.44-5.57-3.35-8.76-3.41
				c-3.6-0.07-6.64-1.35-9.8-2.75c-3.28-1.46-6.9-2.2-10.07-3.84c-6.18-3.21-12.21-6.73-18.18-10.32c-3.3-1.98-6.79-2.8-10.54-2.75
				c-4.9,0.06-9.44-1.2-13.69-3.56c-0.58-0.32-1.15-0.75-1.57-1.26c-0.84-1.03-0.68-1.98,0.65-2.38c1.04-0.3,2.15-0.47,3.23-0.49
				c3-0.07,5.85-0.63,8.28-2.48c0.84-0.64,1.5-1.57,2.11-2.45c2.8-4.02,5.6-8.05,8.31-12.13c2.1-3.17,4.24-6.33,6.04-9.67
				c0.9-1.67,1.45-3.71,1.53-5.61c0.14-3.2-0.18-6.43-0.37-9.65c-0.04-0.66-0.18-1.43-0.55-1.95c-2.35-3.23-2.28-7.11-2.94-10.77
				c-0.16-0.88,0.3-1.86,0.56-3.28c4.18,2.91,8.36,4.77,10.9,8.92c1.07,1.74,2.63,3.44,4.37,4.46c3.18,1.86,5.27,4.6,7.4,7.43
				c3.07,4.06,6.79,7.42,11.25,9.95c2.76,1.57,5.06,3.53,6.47,6.58c1.83,3.94,5.11,5.85,9.55,5.71c3.11-0.09,6.22-0.07,9.33,0
				c2.54,0.05,4.77-0.64,6.99-1.92c2.92-1.69,6.3-2.67,9.05-4.58c4.54-3.14,9.49-3.57,14.7-3.38c2.9,0.1,5.81-0.08,8.7,0.05
				c3.08,0.13,5.63-0.85,8.19-2.58c1.95-1.31,4.37-2.2,6.7-2.65c9.08-1.74,14.12-7.51,16.2-16.09c0.92-3.82,1.03-7.82,1.73-11.7
				c0.4-2.17,1.04-4.35,1.96-6.36c2.62-5.71,3.63-11.58,2.26-17.76c-0.52-2.36-2.54-3.39-4.32-4.67c-4.29-3.08-8.47-6.33-12.76-9.42
				c-0.84-0.61-1.98-1.16-2.97-1.16c-3.69,0.03-6.77-1.52-9.59-3.58c-4.99-3.64-10.39-6.04-16.57-6.98
				c-2.91-0.44-5.64-2.06-8.45-3.14c-7.77-2.98-15.59-5.85-22.79-10.06c-2.12-1.24-3.96-2.94-5.93-4.43
				c0.09-0.22,0.19-0.45,0.28-0.67c1.27,0.32,2.76,0.33,3.78,1.02c4.99,3.38,10.59,3.31,16.16,2.89c4.62-0.34,7.08-3.72,8.71-7.63
				c1.25-2.99,2.89-5.6,5.03-8.05c2.14-2.44,3.83-5.28,5.7-7.96c2.78-3.98,5.77-7.83,8.25-11.98c3.27-5.45,6.09-11.17,9.21-16.71
				c0.82-1.46,1.9-2.8,3.02-4.06c3.97-4.44,6.28-9.67,7.94-15.32c0.62-2.11,1.9-4.08,3.1-5.96c2.86-4.48,2.26-7.23-2.14-10.1
				c-1.64-1.07-3-2.55-4.48-3.85c-2.19-1.92-4.43-3.79-6.54-5.79c-1.76-1.67-3.3-3.57-5.07-5.23c-1.62-1.52-3.29-3.07-5.18-4.22
				c-5.17-3.17-10.44-6.19-15.72-9.19c-4.18-2.37-8.04-5.29-12.9-6.45c-1.88-0.45-3.42-2.25-5.2-3.29
				c-1.43-0.84-2.92-1.77-4.51-2.14c-6.19-1.46-10.77,1.53-15.41,5.26c-4.88,3.92-8.22,8.73-11.23,14.08
				c-1.97,3.5-4.54,6.77-7.32,9.7c-3.32,3.5-5.74,7.47-8.05,11.63c-2.8,5.03-6,9.84-8.98,14.78c-0.48,0.8-0.86,1.76-0.97,2.68
				c-0.57,4.79-3.03,8.73-5.57,12.63c-0.49,0.75-1.28,1.37-2.06,1.83c-2.67,1.57-4.94,3.5-6.54,6.23c-1.68,2.87-4.21,5.44-5.11,8.51
				c-1.29,4.36-0.49,7.74,4.2,9.79c3.46,1.52,6.72,3.56,9.89,5.64c3.87,2.53,7.82,4.55,12.46,5.41c2.44,0.45,4.78,1.88,6.97,3.18
				c4.52,2.68,8.86,5.35,14.4,5.87c4.98,0.47,9.71,2.3,13.12,7.02c-2.26,0-4.3,0.16-6.31-0.04c-2.78-0.27-5.53-0.88-8.31-1.2
				c-4.59-0.53-7.99-3.42-11.67-5.76c-1.1-0.7-2.18-1.43-3.33-2.03c-2.81-1.48-5.64-2.95-8.51-4.32c-1.09-0.52-2.33-1.1-3.49-1.06
				c-3.28,0.1-5.77-1.35-8.2-3.3c-1.24-0.99-2.8-1.63-4.3-2.22c-3.91-1.55-7.28-4.27-11.66-4.82c-3.16-0.4-6.26-1.33-9.36-2.13
				c-1.05-0.27-1.98-0.96-3.02-1.31c-2.91-0.98-5.56-0.46-8.15,1.26c-4.46,2.96-8.68,6.18-12.02,10.42
				c-1.13,1.44-1.9,3.25-3.23,4.42c-2.54,2.24-3.67,5.19-4.97,8.13c-0.54,1.21-1.52,2.26-2.42,3.27c-2.75,3.09-5.74,5.98-8.28,9.22
				c-1.61,2.05-2.58,4.59-3.84,6.91c-2.34,4.3-4.63,8.62-7.06,12.87c-0.44,0.76-1.63,1.07-2.15,1.81c-1.21,1.76-2.73,3.53-3.2,5.52
				c-0.86,3.67-2.55,6.58-5.2,9.21c-2.2,2.19-4.01,4.78-5.91,7.26c-0.48,0.62-0.65,1.48-0.93,2.25c-0.79,2.18-1.94,4.03-3.96,5.36
				c-4.08,2.67-6.75,6.56-8.53,10.99c-1.51,3.77-4.21,6.65-6.77,9.58c-3.11,3.56-5.55,7.49-7.23,11.81
				c-0.69,1.78-0.55,4.11-0.14,6.05c0.51,2.43,0.32,4.35-1.47,6.15c-2.79,2.82-5.57,5.65-8.16,8.65c-1.21,1.4-2.3,3.09-2.88,4.84
				c-2.14,6.46-5.75,12.03-9.94,17.28c-3.78,4.74-4.07,8.39-0.57,13.44c3.06,4.41,6.45,8.59,9.47,13.03
				c3.02,4.44,5.65,9.14,8.68,13.57c1.93,2.83,4.14,5.5,6.49,7.99c0.89,0.94,2.49,1.28,3.82,1.74c3.16,1.08,6.33,2.18,7.5,5.75
				c0.48,1.47,0.75,3.06,0.78,4.6c0.11,5.3,3.18,8.72,7.65,10.37c4.11,1.53,6.34,3.96,7.12,8.07c0.09,0.47,0.24,0.94,0.46,1.36
				c2.5,4.76,5.06,9.5,7.52,14.28c0.96,1.87,1.6,3.91,2.6,5.77c0.87,1.61,2.01,3.08,3.08,4.58c1.54,2.15,3.24,4.2,4.67,6.42
				c2,3.1,3.83,6.31,5.7,9.49c1.3,2.21,2.47,4.51,3.88,6.66c0.56,0.86,1.51,1.57,2.43,2.05c1.93,1.01,3.91,2.01,5.98,2.65
				c2.84,0.88,5.78,1.44,8.68,2.08c2.81,0.62,3.8,2.36,2.46,4.92c-1.43,2.75-1.47,5.2,0.15,7.96c1.75,2.97,2.77,6.38,4.56,9.32
				c3.52,5.8,7.27,11.46,11.09,17.07c1.35,1.99,3.33,3.54,4.76,5.48c2.49,3.37,4.83,6.86,7.12,10.37c1.3,2,2.31,4.19,3.6,6.19
				c0.88,1.36,2.15,2.47,3.02,3.84c2.19,3.43,4.87,6.73,6.18,10.48c1.35,3.89,3.38,7.05,5.99,10.06c1.06,1.23,1.98,2.62,2.76,4.05
				c1.21,2.22,2.29,4.51,3.36,6.8c0.57,1.23,1.4,2.53,1.4,3.8c-0.01,3.76,0.49,7.84-0.8,11.19c-1.74,4.52-2.38,9.2-3.62,13.77
				c-0.19,0.71-0.26,1.5-0.2,2.24c0.35,4.22-0.6,8.14-2.36,11.96c-0.58,1.25-0.82,2.74-0.88,4.14c-0.2,4.48,0.31,9.06-0.5,13.41
				c-1.06,5.71-0.48,11.8-3.66,17.11c-0.75,1.26-0.83,3.03-0.88,4.58c-0.12,3.52-0.16,7.05-0.01,10.57c0.2,4.5-0.33,8.9-1.43,13.23
				c-0.9,3.55-2.05,7.04-2.87,10.61c-0.47,2.04-0.47,4.2-0.76,6.29c-0.65,4.72-1.3,9.43-2.06,14.13c-0.17,1.05-0.92,1.99-1.17,3.04
				c-1.1,4.63-2.04,9.3-3.18,13.92c-0.58,2.37-1.51,4.65-2.2,6.99c-0.38,1.3-0.85,2.64-0.86,3.96c-0.07,12.16-0.04,24.32-0.04,36.49
				c0,3.32,1.73,5.67,4.8,6.94c2.89,1.19,5.68,2.59,8.57,3.77c1.85,0.76,3.78,1.3,5.68,1.94c-49.05,0-98.11,0-147.16,0
				c0-234.96,0-469.92,0-704.88c164.98,0,329.97,0,494.95,0c0,234.96,0,469.92,0,704.88C502.23,764.15,462.02,764.15,421.81,764.15z
				 M379.27,374.51c3.37-0.64,5.77-1.3,7.59-3.31c1.9-2.1,3.64-4.42,5.8-6.21c4.91-4.05,9.38-8.42,13.03-13.67
				c1.95-2.8,3.55-5.99,6.69-7.76c2.67-1.5,4.1-3.94,5.16-6.64c1.09-2.78,2.61-5.19,4.75-7.34c2.11-2.11,3.91-4.55,5.72-6.93
				c2.1-2.75,3.94-5.7,6.13-8.37c1.81-2.2,4.17-3.96,5.91-6.2c4.61-5.93,8.95-12.07,13.54-18.03c2.61-3.39,5.54-6.54,8.21-9.88
				c1.56-1.95,3.1-3.97,4.31-6.15c1.57-2.83,2.74-5.88,4.2-8.77c0.47-0.93,1.5-1.57,2-2.49c2.4-4.36,4.72-8.77,7.04-13.17
				c1.18-2.24,2.44-4.45,3.38-6.79c1.03-2.57,1.88-5.27,0.25-7.99c-0.59-0.99-1.2-1.99-1.65-3.04c-1.48-3.49-4.01-5.79-7.37-7.53
				c-2.12-1.09-3.88-2.9-5.75-4.45c-2.25-1.86-4.25-4.13-6.73-5.59c-2.6-1.54-5.12-2.89-6.64-5.67c-0.55-1.01-1.62-1.76-2.51-2.57
				c-3.74-3.39-7.5-6.76-11.26-10.12c-0.66-0.59-1.31-1.25-2.09-1.62c-5.6-2.62-11.19-5.14-16.12-9.09
				c-2.29-1.83-5.53-2.72-8.48-3.45c-4.74-1.18-7.7,0.86-9.13,5.63c-0.39,1.3-0.78,2.63-1.4,3.83c-1.66,3.27-3.44,6.49-5.18,9.72
				c-1.44,2.66-2.39,5.81-4.45,7.83c-3.83,3.76-6.16,8.46-9.25,12.67c-3.26,4.44-6.45,8.93-9.64,13.42
				c-1.38,1.94-3.46,3.79-3.87,5.94c-0.99,5.17-3.86,9.25-6.56,13.46c-2.3,3.6-5.11,6.88-6.16,11.19c-0.26,1.05-1.23,1.96-1.96,2.86
				c-4.39,5.37-8.95,10.62-10.87,17.53c-0.2,0.71-0.63,1.38-1.07,1.98c-1.9,2.56-3.84,5.09-5.76,7.62
				c-2.63,3.45-5.31,6.87-7.88,10.37c-3.14,4.27-6.35,8.49-9.21,12.94c-2.43,3.79-3.34,8.51-7.11,11.51
				c-0.71,0.57-1.27,1.42-1.71,2.24c-1.58,2.99-2.73,6.41,0.82,9.09c2.14,1.61,4.71,2.63,7.03,4.03c4.55,2.75,8.88,5.95,13.63,8.29
				c5.29,2.61,11.04,4.26,15.88,7.84c2.76,2.04,5.89,2.83,9.41,2.86c1.97,0.02,4.07,0.98,5.87,1.97c2.35,1.29,4.39,3.14,6.7,4.52
				C374.85,372.41,377.37,373.54,379.27,374.51z M330.42,263.93c-0.2,4.01,1.89,5.41,5.51,3.29c3.39-1.98,6.57-4.43,9.53-7.03
				c3.8-3.32,6.85-7.47,11.47-9.87c2.8-1.45,4.43-4.01,6.12-6.61c2.55-3.91,5.43-7.61,8.31-11.28c2.26-2.88,5.32-5.2,6.34-8.91
				c0.71-2.59,1.94-4.76,3.96-6.57c2.81-2.54,5.09-5.46,6.57-9.04c0.87-2.1,2.01-4.26,3.56-5.88c2.67-2.78,4.91-5.74,6.55-9.23
				c0.89-1.89,1.87-3.83,3.21-5.39c1.75-2.04,2.69-4.15,2.6-6.86c-0.04-1.25,0.38-2.55,0.77-3.77c1.38-4.41,2.99-8.75,4.2-13.2
				c0.73-2.7,1.22-5.65-1.07-8c-1.31-1.34-2.76-2.58-4.31-3.63c-2.63-1.79-5.61-3.13-8.05-5.14c-4.36-3.58-8.31-7.65-12.64-11.26
				c-3.63-3.02-7.3-6.08-11.84-7.75c-2.62-0.96-5.36-1.71-7.82-2.99c-4.35-2.27-8.53-4.89-12.79-7.34c-1.1-0.63-2.18-1.32-3.34-1.8
				c-3.32-1.38-6.63-2.8-10.03-3.95c-3.33-1.13-4.95-1.71-7.84,1.94c-0.87,1.1-2.74,1.77-4.23,1.94c-2.72,0.3-4.49,1.4-5.77,3.87
				c-1.69,3.26-3.74,6.33-5.62,9.49c-1.7,2.87-3.66,5.62-5.01,8.65c-1.84,4.12-3.71,8.18-6.38,11.83c-1.57,2.15-3.38,4.15-4.72,6.43
				c-2.1,3.58-3.69,7.47-5.88,10.99c-1.56,2.51-4.07,4.42-5.59,6.95c-2.41,4.02-4.68,8.2-6.41,12.55
				c-2.46,6.19,0.14,11.93,7.94,12.34c2.17,0.11,4.5,1.13,6.37,2.33c3.62,2.32,7.15,4.66,11.32,5.94c2.31,0.71,4.57,1.67,6.7,2.82
				c5.8,3.13,11.24,6.84,17.71,8.83c4.37,1.35,6.64,3.94,6.63,9.44c-0.01,5.13-1.07,10.02-3.45,14.61c-0.5,0.97-1.06,2.02-1.16,3.07
				C331.31,251.79,330.89,257.86,330.42,263.93z M281.93,298.21c-0.04-0.18-0.08-0.37-0.12-0.55c-3.44,0.72-6.9,1.37-10.32,2.19
				c-1.57,0.38-3.03,1.27-4.61,1.59c-3.33,0.66-6.72,1.02-9.68,2.94c-1.3,0.84-2.74,1.52-4.17,2.11c-4.78,1.97-9.62,3.8-14.39,5.81
				c-2.43,1.02-3.42,4.08-1.65,5.54c3.17,2.6,6.54,5.03,10.08,7.07c2.2,1.27,5.14,1.27,7.29,2.59c6.01,3.67,11.73,7.79,17.67,11.58
				c1.55,0.99,3.43,1.64,5.24,2.02c3.52,0.73,6.17-1.23,8.51-3.48c1.63-1.57,3.33-3.23,4.41-5.18c2.44-4.4,4.51-9,6.72-13.52
				c1.82-3.72,3.91-6.82,8.63-7.53c3.28-0.49,6.25-2.34,7.82-5.59c1.42-2.94,2.62-6,3.98-8.97c0.86-1.87,0.43-3.63-0.8-4.93
				c-1.24-1.32-2.97-1.24-4.78-0.7c-3.17,0.95-6.44,1.59-9.67,2.35c-1.84,0.43-3.82,0.55-5.52,1.3
				C291.89,296.9,287.11,298.37,281.93,298.21z"/>
			<path d="M379.27,374.51c-1.89-0.97-4.42-2.1-6.77-3.51c-2.31-1.38-4.35-3.24-6.7-4.52c-1.8-0.98-3.9-1.95-5.87-1.97
				c-3.51-0.03-6.64-0.82-9.41-2.86c-4.84-3.58-10.59-5.23-15.88-7.84c-4.75-2.34-9.07-5.53-13.63-8.29
				c-2.31-1.4-4.89-2.41-7.03-4.03c-3.55-2.68-2.4-6.09-0.82-9.09c0.43-0.82,0.99-1.67,1.71-2.24c3.77-3,4.68-7.72,7.11-11.51
				c2.86-4.45,6.07-8.67,9.21-12.94c2.57-3.5,5.25-6.91,7.88-10.37c1.93-2.53,3.87-5.06,5.76-7.62c0.44-0.6,0.88-1.27,1.07-1.98
				c1.92-6.91,6.48-12.16,10.87-17.53c0.73-0.9,1.7-1.81,1.96-2.86c1.05-4.31,3.86-7.59,6.16-11.19c2.7-4.22,5.56-8.29,6.56-13.46
				c0.41-2.15,2.49-4,3.87-5.94c3.19-4.49,6.39-8.98,9.64-13.42c3.09-4.21,5.42-8.91,9.25-12.67c2.06-2.02,3.02-5.18,4.45-7.83
				c1.75-3.23,3.52-6.44,5.18-9.72c0.61-1.2,1-2.53,1.4-3.83c1.43-4.77,4.4-6.81,9.13-5.63c2.95,0.73,6.19,1.62,8.48,3.45
				c4.93,3.94,10.52,6.47,16.12,9.09c0.78,0.36,1.43,1.03,2.09,1.62c3.77,3.36,7.52,6.73,11.26,10.12c0.89,0.8,1.95,1.56,2.51,2.57
				c1.52,2.78,4.04,4.13,6.64,5.67c2.48,1.47,4.47,3.73,6.73,5.59c1.87,1.55,3.63,3.36,5.75,4.45c3.36,1.74,5.89,4.04,7.37,7.53
				c0.45,1.06,1.06,2.05,1.65,3.04c1.63,2.72,0.78,5.42-0.25,7.99c-0.94,2.34-2.2,4.55-3.38,6.79c-2.32,4.41-4.64,8.81-7.04,13.17
				c-0.51,0.92-1.53,1.56-2,2.49c-1.47,2.89-2.63,5.94-4.2,8.77c-1.21,2.18-2.74,4.2-4.31,6.15c-2.68,3.34-5.6,6.49-8.21,9.88
				c-4.58,5.96-8.93,12.1-13.54,18.03c-1.74,2.24-4.11,4-5.91,6.2c-2.19,2.67-4.03,5.62-6.13,8.37c-1.82,2.38-3.62,4.82-5.72,6.93
				c-2.14,2.15-3.66,4.56-4.75,7.34c-1.06,2.7-2.49,5.13-5.16,6.64c-3.14,1.77-4.74,4.96-6.69,7.76
				c-3.65,5.25-8.13,9.63-13.03,13.67c-2.17,1.79-3.9,4.11-5.8,6.21C385.04,373.21,382.64,373.87,379.27,374.51z"/>
			<path d="M330.42,263.93c0.46-6.06,0.88-12.13,1.44-18.19c0.1-1.05,0.66-2.1,1.16-3.07c2.38-4.59,3.44-9.48,3.45-14.61
				c0.01-5.5-2.26-8.09-6.63-9.44c-6.48-2-11.91-5.7-17.71-8.83c-2.12-1.15-4.39-2.11-6.7-2.82c-4.17-1.28-7.71-3.63-11.32-5.94
				c-1.87-1.2-4.2-2.22-6.37-2.33c-7.79-0.41-10.4-6.16-7.94-12.34c1.73-4.35,4-8.53,6.41-12.55c1.52-2.52,4.03-4.44,5.59-6.95
				c2.19-3.52,3.78-7.41,5.88-10.99c1.34-2.28,3.15-4.28,4.72-6.43c2.67-3.65,4.55-7.71,6.38-11.83c1.35-3.03,3.3-5.78,5.01-8.65
				c1.88-3.16,3.93-6.23,5.62-9.49c1.28-2.46,3.05-3.57,5.77-3.87c1.49-0.16,3.36-0.84,4.23-1.94c2.89-3.65,4.51-3.07,7.84-1.94
				c3.4,1.16,6.71,2.57,10.03,3.95c1.16,0.48,2.24,1.17,3.34,1.8c4.26,2.46,8.43,5.07,12.79,7.34c2.46,1.28,5.2,2.03,7.82,2.99
				c4.54,1.67,8.21,4.73,11.84,7.75c4.34,3.61,8.29,7.68,12.64,11.26c2.44,2.01,5.41,3.35,8.05,5.14c1.55,1.05,3,2.29,4.31,3.63
				c2.29,2.34,1.81,5.3,1.07,8c-1.21,4.45-2.82,8.79-4.2,13.2c-0.38,1.22-0.81,2.52-0.77,3.77c0.09,2.7-0.85,4.82-2.6,6.86
				c-1.34,1.57-2.32,3.5-3.21,5.39c-1.64,3.48-3.89,6.45-6.55,9.23c-1.55,1.62-2.68,3.78-3.56,5.88c-1.49,3.58-3.76,6.5-6.57,9.04
				c-2.01,1.81-3.24,3.98-3.96,6.57c-1.02,3.72-4.08,6.04-6.34,8.91c-2.89,3.67-5.76,7.37-8.31,11.28c-1.7,2.6-3.32,5.16-6.12,6.61
				c-4.62,2.39-7.67,6.55-11.47,9.87c-2.97,2.59-6.14,5.04-9.53,7.03C332.31,269.34,330.23,267.94,330.42,263.93z"/>
			<path d="M281.93,298.21c5.18,0.16,9.96-1.32,14.65-3.38c1.7-0.75,3.68-0.87,5.52-1.3c3.23-0.76,6.5-1.4,9.67-2.35
				c1.82-0.54,3.54-0.62,4.78,0.7c1.23,1.31,1.66,3.07,0.8,4.93c-1.37,2.97-2.56,6.03-3.98,8.97c-1.57,3.24-4.54,5.09-7.82,5.59
				c-4.71,0.71-6.81,3.81-8.63,7.53c-2.21,4.52-4.29,9.12-6.72,13.52c-1.08,1.95-2.78,3.61-4.41,5.18
				c-2.34,2.25-4.99,4.21-8.51,3.48c-1.82-0.38-3.69-1.03-5.24-2.02c-5.94-3.78-11.66-7.91-17.67-11.58
				c-2.15-1.31-5.09-1.32-7.29-2.59c-3.55-2.05-6.91-4.47-10.08-7.07c-1.77-1.45-0.79-4.51,1.65-5.54c4.76-2.01,9.6-3.84,14.39-5.81
				c1.44-0.59,2.87-1.27,4.17-2.11c2.97-1.92,6.35-2.28,9.68-2.94c1.58-0.31,3.03-1.21,4.61-1.59c3.42-0.82,6.88-1.47,10.32-2.19
				C281.85,297.84,281.89,298.03,281.93,298.21z"/>
		</g>
	</g>
</g>
</svg>
